<?xml version="1.0" standalone="no"?>
<!DOCTYPE svg PUBLIC "-//W3C//DTD SVG 20010904//EN"
 "http://www.w3.org/TR/2001/REC-SVG-20010904/DTD/svg10.dtd">
<svg version="1.0" xmlns="http://www.w3.org/2000/svg"
 width="253.000000pt" height="106.000000pt" viewBox="0 0 253.000000 106.000000"
 preserveAspectRatio="xMidYMid meet">
<metadata>
Created by potrace 1.16, written by Peter Selinger 2001-2019
</metadata>
<g transform="translate(0.000000,106.000000) scale(0.100000,-0.100000)"
fill="#000000" stroke="none">
<path d="M0 530 l0 -530 1265 0 1265 0 0 530 0 530 -1265 0 -1265 0 0 -530z
m310 242 c0 -4 -23 -48 -52 -97 -28 -50 -51 -95 -51 -100 0 -10 40 -98 90
-197 l23 -48 -28 0 c-25 0 -32 8 -72 90 -24 49 -47 90 -50 90 -3 0 -11 -5 -18
-12 -9 -9 -12 -4 -12 25 0 27 17 67 62 147 51 90 66 110 85 110 13 0 23 -4 23
-8z m108 -49 c-18 -32 -44 -78 -59 -102 l-27 -45 59 -118 c32 -65 59 -120 59
-123 0 -3 -11 -5 -25 -5 -21 0 -31 13 -70 90 -25 50 -55 100 -66 111 l-20 20
42 77 c86 157 82 152 112 152 l27 0 -32 -57z m433 -62 c23 -24 29 -38 29 -74
0 -60 -40 -97 -104 -97 -79 0 -126 68 -96 141 27 63 121 80 171 30z m869 16
c30 -15 38 -52 17 -75 -13 -15 -14 -20 -1 -36 16 -22 19 -81 4 -71 -5 3 -10
19 -10 35 0 36 -23 50 -84 50 l-45 0 -4 -47 c-2 -27 -4 -2 -5 55 l-2 102 53 0
c28 0 63 -6 77 -13z"/>
<path d="M730 663 c-35 -24 -40 -33 -40 -76 0 -78 86 -115 147 -63 22 19 28
32 28 66 0 74 -75 114 -135 73z"/>
</g>
</svg>
